<svg width="80" height="80" viewBox="0 0 80 80" fill="none" xmlns="http://www.w3.org/2000/svg">
<rect x="28" y="31" width="23" height="1" fill="#D9D9D9"/>
<rect x="27" y="47" width="1" height="3" fill="#D9D9D9"/>
<rect x="27" y="32" width="1" height="16" fill="#D9D9D9"/>
<rect x="51" y="46" width="1" height="4" fill="#D9D9D9"/>
<rect x="51" y="32" width="1" height="15" fill="#D9D9D9"/>
<rect x="26" y="50" width="1" height="1" fill="#D9D9D9"/>
<rect x="52" y="50" width="1" height="1" fill="#D9D9D9"/>
<rect x="24" y="55" width="25" height="1" fill="#D9D9D9"/>
<rect x="45" y="55" width="10" height="1" fill="#D9D9D9"/>
<rect x="29" y="49" width="22" height="1" fill="#D9D9D9"/>
<rect x="53" y="51" width="1" height="1" fill="#D9D9D9"/>
<rect x="54" y="52" width="1" height="1" fill="#D9D9D9"/>
<rect x="24" y="52" width="1" height="1" fill="#D9D9D9"/>
<rect x="55" y="53" width="1" height="1" fill="#D9D9D9"/>
<rect x="55" y="54" width="1" height="1" fill="#D9D9D9"/>
<rect x="25" y="51" width="1" height="1" fill="#D9D9D9"/>
<rect x="45" y="53" width="11" height="1" fill="#D9D9D9"/>
<rect x="23" y="53" width="26" height="1" fill="#D9D9D9"/>
<rect x="23" y="53" width="1" height="1" fill="#D9D9D9"/>
<rect x="23" y="54" width="1" height="1" fill="#D9D9D9"/>
<rect x="28" y="49" width="1" height="1" fill="#D9D9D9"/>
<path d="M44 37H45V39H44V37Z" fill="#F9F9FB"/>
<path d="M44 44H45V37H44V44Z" fill="#F9F9FB"/>
<path d="M34 39H33L33 37H34L34 39Z" fill="#F9F9FB"/>
<path d="M34 37H33L33 44H34V37Z" fill="#F9F9FB"/>
<path d="M42 36H44V37L42 37V36Z" fill="#F9F9FB"/>
<path d="M42 40H44V39H42V40Z" fill="#F9F9FB"/>
<path d="M42 45H44V44H42V45Z" fill="#F9F9FB"/>
<path d="M40 35H42V36L40 36V35Z" fill="#F9F9FB"/>
<path d="M40 41H42V40H40V41Z" fill="#F9F9FB"/>
<path d="M40 46H42V45H40V46Z" fill="#F9F9FB"/>
<path d="M39 34H40V35L39 35V34Z" fill="#F9F9FB"/>
<path d="M39 42H40V41H39V42Z" fill="#F9F9FB"/>
<path d="M39 47H40V46H39V47Z" fill="#F9F9FB"/>
<path d="M38 34L39 34V35L38 35V34Z" fill="#F9F9FB"/>
<path d="M38 42L39 42V41L38 41V42Z" fill="#F9F9FB"/>
<path d="M38 47H39V46H38V47Z" fill="#F9F9FB"/>
<path d="M36 37L34 37L34 36L36 36V37Z" fill="#F9F9FB"/>
<path d="M36 39H34L34 40L36 40L36 39Z" fill="#F9F9FB"/>
<path d="M36 44H34L34 45H36V44Z" fill="#F9F9FB"/>
<path d="M38 36L36 36V35H38L38 36Z" fill="#F9F9FB"/>
<path d="M38 40H36V41H38L38 40Z" fill="#F9F9FB"/>
<path d="M38 45H36L36 46H38L38 45Z" fill="#F9F9FB"/>
</svg>
