<svg width="80" height="80" viewBox="0 0 80 80" fill="none" xmlns="http://www.w3.org/2000/svg">
<rect x="28" y="31" width="23" height="1" fill="#D9D9D9"/>
<rect x="27" y="47" width="1" height="3" fill="#D9D9D9"/>
<rect x="27" y="32" width="1" height="16" fill="#D9D9D9"/>
<rect x="51" y="46" width="1" height="4" fill="#D9D9D9"/>
<rect x="51" y="32" width="1" height="15" fill="#D9D9D9"/>
<rect x="26" y="50" width="1" height="1" fill="#D9D9D9"/>
<rect x="52" y="50" width="1" height="1" fill="#D9D9D9"/>
<rect x="24" y="55" width="25" height="1" fill="#D9D9D9"/>
<rect x="45" y="55" width="10" height="1" fill="#D9D9D9"/>
<rect x="29" y="49" width="22" height="1" fill="#D9D9D9"/>
<rect x="53" y="51" width="1" height="1" fill="#D9D9D9"/>
<rect x="54" y="52" width="1" height="1" fill="#D9D9D9"/>
<rect x="24" y="52" width="1" height="1" fill="#D9D9D9"/>
<rect x="55" y="53" width="1" height="1" fill="#D9D9D9"/>
<rect x="55" y="54" width="1" height="1" fill="#D9D9D9"/>
<rect x="25" y="51" width="1" height="1" fill="#D9D9D9"/>
<rect x="45" y="53" width="11" height="1" fill="#D9D9D9"/>
<rect x="23" y="53" width="26" height="1" fill="#D9D9D9"/>
<rect x="23" y="53" width="1" height="1" fill="#D9D9D9"/>
<rect x="23" y="54" width="1" height="1" fill="#D9D9D9"/>
<rect x="37" y="37" width="1" height="1" fill="#D9D9D9"/>
<rect x="37" y="40" width="2" height="1" transform="rotate(90 37 40)" fill="#D9D9D9"/>
<rect x="43" y="39" width="3" height="1" transform="rotate(90 43 39)" fill="#D9D9D9"/>
<rect x="36" y="39" width="1" height="2" fill="#D9D9D9"/>
<rect x="41" y="37" width="1" height="1" fill="#D9D9D9"/>
<rect x="38" y="37" width="3" height="1" fill="#D9D9D9"/>
<rect x="37" y="42" width="1" height="1" fill="#D9D9D9"/>
<rect x="38" y="43" width="3" height="1" fill="#D9D9D9"/>
<rect x="41" y="42" width="1" height="1" fill="#D9D9D9"/>
<rect x="41" y="44" width="2" height="1" fill="#D9D9D9"/>
<rect x="36" y="44" width="2" height="1" fill="#D9D9D9"/>
<rect x="43" y="45" width="1" height="1" fill="#D9D9D9"/>
<rect x="35" y="45" width="1" height="1" fill="#D9D9D9"/>
<rect x="44" y="46" width="1" height="1" fill="#D9D9D9"/>
<rect x="34" y="46" width="1" height="1" fill="#D9D9D9"/>
<rect x="34" y="46" width="11" height="1" fill="#D9D9D9"/>
<rect x="37" y="38" width="5" height="1" fill="#D9D9D9"/>
<rect x="40" y="40" width="1" height="1" fill="#D9D9D9"/>
<rect x="38" y="40" width="1" height="1" fill="#D9D9D9"/>
<rect x="37" y="39" width="1" height="1" fill="#D9D9D9"/>
<rect x="41" y="39" width="1" height="1" fill="#D9D9D9"/>
<rect x="48" y="34" width="1" height="13" fill="#D9D9D9"/>
<rect x="30" y="46" width="19" height="1" fill="#D9D9D9"/>
<rect x="30" y="34" width="18" height="1" fill="#D9D9D9"/>
<rect x="30" y="34" width="1" height="13" fill="#D9D9D9"/>
<rect x="28" y="49" width="1" height="1" fill="#D9D9D9"/>
</svg>
