<svg width="80" height="80" viewBox="0 0 80 80" fill="none" xmlns="http://www.w3.org/2000/svg">
<rect x="28" y="31" width="23" height="1" fill="#D9D9D9"/>
<rect x="27" y="47" width="1" height="3" fill="#D9D9D9"/>
<rect x="27" y="32" width="1" height="7" fill="#D9D9D9"/>
<rect x="51" y="46" width="1" height="4" fill="#D9D9D9"/>
<rect x="51" y="32" width="1" height="9" fill="#D9D9D9"/>
<rect x="26" y="50" width="1" height="1" fill="#D9D9D9"/>
<rect x="52" y="50" width="1" height="1" fill="#D9D9D9"/>
<rect x="24" y="55" width="10" height="1" fill="#D9D9D9"/>
<rect x="45" y="55" width="10" height="1" fill="#D9D9D9"/>
<rect x="33" y="49" width="11" height="1" fill="#D9D9D9"/>
<rect x="53" y="51" width="1" height="1" fill="#D9D9D9"/>
<rect x="54" y="52" width="1" height="1" fill="#D9D9D9"/>
<rect x="24" y="52" width="1" height="1" fill="#D9D9D9"/>
<rect x="55" y="53" width="1" height="1" fill="#D9D9D9"/>
<rect x="55" y="54" width="1" height="1" fill="#D9D9D9"/>
<rect x="25" y="51" width="1" height="1" fill="#D9D9D9"/>
<rect x="45" y="53" width="11" height="1" fill="#D9D9D9"/>
<rect x="23" y="53" width="11" height="1" fill="#D9D9D9"/>
<rect x="23" y="53" width="1" height="1" fill="#D9D9D9"/>
<rect x="23" y="54" width="1" height="1" fill="#D9D9D9"/>
<rect x="39" y="52" width="1" height="7" fill="#D9D9D9"/>
<rect x="42" y="55" width="1" height="1" fill="#D9D9D9"/>
<rect x="36" y="55" width="7" height="1" fill="#D9D9D9"/>
<rect x="40" y="54" width="1" height="1" fill="#D9D9D9"/>
<rect x="42" y="52" width="1" height="1" fill="#D9D9D9"/>
<rect x="38" y="54" width="1" height="1" fill="#D9D9D9"/>
<rect x="40" y="56" width="1" height="1" fill="#D9D9D9"/>
<rect x="38" y="56" width="1" height="1" fill="#D9D9D9"/>
<rect x="42" y="58" width="1" height="1" fill="#D9D9D9"/>
<rect x="36" y="58" width="1" height="1" fill="#D9D9D9"/>
<rect x="36" y="52" width="1" height="1" fill="#D9D9D9"/>
<rect x="18" y="21" width="1" height="7" fill="#D9D9D9"/>
<rect x="21" y="24" width="1" height="1" fill="#D9D9D9"/>
<rect x="15" y="24" width="7" height="1" fill="#D9D9D9"/>
<rect x="19" y="23" width="1" height="1" fill="#D9D9D9"/>
<rect x="21" y="21" width="1" height="1" fill="#D9D9D9"/>
<rect x="17" y="23" width="1" height="1" fill="#D9D9D9"/>
<rect x="19" y="25" width="1" height="1" fill="#D9D9D9"/>
<rect x="17" y="25" width="1" height="1" fill="#D9D9D9"/>
<rect x="21" y="27" width="1" height="1" fill="#D9D9D9"/>
<rect x="15" y="27" width="1" height="1" fill="#D9D9D9"/>
<rect x="15" y="21" width="1" height="1" fill="#D9D9D9"/>
<rect x="61" y="29" width="1" height="7" fill="#D9D9D9"/>
<rect x="64" y="32" width="1" height="1" fill="#D9D9D9"/>
<rect x="58" y="32" width="7" height="1" fill="#D9D9D9"/>
<rect x="62" y="31" width="1" height="1" fill="#D9D9D9"/>
<rect x="64" y="29" width="1" height="1" fill="#D9D9D9"/>
<rect x="60" y="31" width="1" height="1" fill="#D9D9D9"/>
<rect x="62" y="33" width="1" height="1" fill="#D9D9D9"/>
<rect x="60" y="33" width="1" height="1" fill="#D9D9D9"/>
<rect x="64" y="35" width="1" height="1" fill="#D9D9D9"/>
<rect x="58" y="35" width="1" height="1" fill="#D9D9D9"/>
<rect x="58" y="29" width="1" height="1" fill="#D9D9D9"/>
<rect x="37" y="37" width="1" height="1" fill="#D9D9D9"/>
<rect x="37" y="40" width="2" height="1" transform="rotate(90 37 40)" fill="#D9D9D9"/>
<rect x="43" y="39" width="3" height="1" transform="rotate(90 43 39)" fill="#D9D9D9"/>
<rect x="36" y="39" width="1" height="2" fill="#D9D9D9"/>
<rect x="41" y="37" width="1" height="1" fill="#D9D9D9"/>
<rect x="38" y="37" width="3" height="1" fill="#D9D9D9"/>
<rect x="37" y="42" width="1" height="1" fill="#D9D9D9"/>
<rect x="38" y="43" width="3" height="1" fill="#D9D9D9"/>
<rect x="41" y="42" width="1" height="1" fill="#D9D9D9"/>
<rect x="41" y="44" width="2" height="1" fill="#D9D9D9"/>
<rect x="36" y="44" width="2" height="1" fill="#D9D9D9"/>
<rect x="43" y="45" width="1" height="1" fill="#D9D9D9"/>
<rect x="35" y="45" width="1" height="1" fill="#D9D9D9"/>
<rect x="44" y="46" width="1" height="1" fill="#D9D9D9"/>
<rect x="34" y="46" width="1" height="1" fill="#D9D9D9"/>
<rect x="34" y="46" width="11" height="1" fill="#D9D9D9"/>
<rect x="37" y="38" width="5" height="1" fill="#D9D9D9"/>
<rect x="40" y="40" width="1" height="1" fill="#D9D9D9"/>
<rect x="38" y="40" width="1" height="1" fill="#D9D9D9"/>
<rect x="37" y="39" width="1" height="1" fill="#D9D9D9"/>
<rect x="41" y="39" width="1" height="1" fill="#D9D9D9"/>
<rect x="51" y="44" width="1" height="1" transform="rotate(90 51 44)" fill="#D9D9D9"/>
<rect x="57" y="38" width="1" height="1" transform="rotate(90 57 38)" fill="#D9D9D9"/>
<rect x="50" y="45" width="1" height="1" transform="rotate(90 50 45)" fill="#D9D9D9"/>
<rect x="56" y="39" width="1" height="1" transform="rotate(90 56 39)" fill="#D9D9D9"/>
<rect x="49" y="46" width="1" height="1" transform="rotate(90 49 46)" fill="#D9D9D9"/>
<rect x="55" y="40" width="1" height="1" transform="rotate(90 55 40)" fill="#D9D9D9"/>
<rect x="48" y="47" width="1" height="1" transform="rotate(90 48 47)" fill="#D9D9D9"/>
<rect x="54" y="41" width="1" height="1" transform="rotate(90 54 41)" fill="#D9D9D9"/>
<rect x="47" y="48" width="1" height="1" transform="rotate(90 47 48)" fill="#D9D9D9"/>
<rect x="53" y="42" width="1" height="1" transform="rotate(90 53 42)" fill="#D9D9D9"/>
<rect x="46" y="49" width="1" height="1" transform="rotate(90 46 49)" fill="#D9D9D9"/>
<rect x="52" y="43" width="1" height="1" transform="rotate(90 52 43)" fill="#D9D9D9"/>
<rect width="1" height="4.85714" transform="matrix(-4.37114e-08 -1 -1 4.37114e-08 35.5714 25)" fill="#D9D9D9"/>
<rect width="1" height="4.85714" transform="matrix(-4.37114e-08 -1 -1 4.37114e-08 40.4285 26)" fill="#D9D9D9"/>
<rect width="1" height="4.85714" transform="matrix(-4.37114e-08 -1 -1 4.37114e-08 45.2857 27)" fill="#D9D9D9"/>
<rect width="1" height="4.85714" transform="matrix(-4.37114e-08 -1 -1 4.37114e-08 50.1428 28)" fill="#D9D9D9"/>
<rect width="1" height="4.85714" transform="matrix(-4.37114e-08 -1 -1 4.37114e-08 55 29)" fill="#D9D9D9"/>
<rect width="1" height="4.85714" transform="matrix(-4.37114e-08 -1 -1 4.37114e-08 30.7143 24)" fill="#D9D9D9"/>
<rect x="23" y="34" width="1" height="2" transform="rotate(180 23 34)" fill="#D9D9D9"/>
<rect x="29" y="46" width="1" height="2" transform="rotate(180 29 46)" fill="#D9D9D9"/>
<rect x="24" y="36" width="1" height="2" transform="rotate(180 24 36)" fill="#D9D9D9"/>
<rect x="30" y="48" width="1" height="2" transform="rotate(180 30 48)" fill="#D9D9D9"/>
<rect x="25" y="38" width="1" height="2" transform="rotate(180 25 38)" fill="#D9D9D9"/>
<rect x="31" y="50" width="1" height="2" transform="rotate(180 31 50)" fill="#D9D9D9"/>
<rect x="32" y="52" width="1" height="2" transform="rotate(180 32 52)" fill="#D9D9D9"/>
<rect x="26" y="40" width="1" height="2" transform="rotate(180 26 40)" fill="#D9D9D9"/>
<rect x="27" y="42" width="1" height="2" transform="rotate(180 27 42)" fill="#D9D9D9"/>
<rect x="22" y="32" width="1" height="2" transform="rotate(180 22 32)" fill="#D9D9D9"/>
<rect x="28" y="44" width="1" height="2" transform="rotate(180 28 44)" fill="#D9D9D9"/>
<rect x="48" y="34" width="1" height="10" fill="#D9D9D9"/>
<rect x="31" y="46" width="15" height="1" fill="#D9D9D9"/>
<rect x="30" y="34" width="18" height="1" fill="#D9D9D9"/>
<rect x="30" y="34" width="1" height="11" fill="#D9D9D9"/>
<rect x="28" y="49" width="1" height="1" fill="#D9D9D9"/>
<rect x="48" y="49" width="3" height="1" fill="#D9D9D9"/>
</svg>
